<svg width="636" height="30" viewBox="0 0 636 30" fill="none" xmlns="http://www.w3.org/2000/svg">
<line opacity="0.1" x1="0.558105" y1="18.7671" x2="635.442" y2="18.7671" stroke="black" stroke-width="1.62791"/>
<rect width="263.558" height="29" transform="translate(186.221 0.0463867)" fill="white"/>
<path opacity="0.5" d="M218.816 6.68592C220.232 6.68592 221.453 6.97894 222.478 7.56499C223.504 8.13476 224.359 8.98127 225.042 10.1045L223.406 11.3743C222.804 10.3324 222.12 9.59987 221.355 9.17662C220.606 8.73708 219.695 8.51732 218.62 8.51732C217.757 8.51732 217.041 8.63941 216.471 8.88359C215.918 9.12778 215.511 9.45336 215.251 9.86034C214.99 10.251 214.86 10.6987 214.86 11.2034C214.86 11.7731 215.039 12.2778 215.397 12.7173C215.755 13.1406 216.471 13.4743 217.546 13.7185L221.038 14.4999C222.584 14.8417 223.659 15.3627 224.261 16.0627C224.88 16.7464 225.189 17.601 225.189 18.6266C225.189 19.5382 224.928 20.3522 224.407 21.0685C223.903 21.7685 223.187 22.3138 222.259 22.7045C221.331 23.0952 220.24 23.2906 218.987 23.2906C217.814 23.2906 216.781 23.1359 215.885 22.8266C215.006 22.501 214.249 22.0696 213.614 21.5324C212.98 20.9952 212.459 20.3929 212.052 19.7255L213.761 18.3336C214.07 18.9522 214.469 19.4975 214.957 19.9696C215.446 20.4417 216.032 20.808 216.716 21.0685C217.416 21.3289 218.213 21.4592 219.109 21.4592C219.939 21.4592 220.655 21.3615 221.257 21.1662C221.876 20.9545 222.348 20.6534 222.674 20.2627C222.999 19.8557 223.162 19.3673 223.162 18.7975C223.162 18.2766 222.991 17.8127 222.649 17.4057C222.307 16.9824 221.664 16.665 220.72 16.4534L216.935 15.5987C215.942 15.3708 215.137 15.0615 214.518 14.6708C213.916 14.2638 213.476 13.7917 213.199 13.2545C212.939 12.701 212.809 12.1069 212.809 11.472C212.809 10.6092 213.045 9.81964 213.517 9.10336C214.005 8.3708 214.697 7.78476 215.592 7.34522C216.504 6.90569 217.578 6.68592 218.816 6.68592ZM229.773 8.4929C229.334 8.4929 228.976 8.36266 228.699 8.1022C228.438 7.82546 228.308 7.46732 228.308 7.02778C228.308 6.58825 228.438 6.23825 228.699 5.97778C228.976 5.70104 229.334 5.56266 229.773 5.56266C230.213 5.56266 230.563 5.70104 230.823 5.97778C231.1 6.23825 231.238 6.58825 231.238 7.02778C231.238 7.46732 231.1 7.82546 230.823 8.1022C230.563 8.36266 230.213 8.4929 229.773 8.4929ZM230.75 10.8371V23.0464H228.797V10.8371H230.75ZM245.563 8.59057L246.003 10.3243C245.986 10.3243 245.962 10.3243 245.929 10.3243C245.897 10.3243 245.864 10.3243 245.832 10.3243C245.034 10.3243 244.415 10.4871 243.976 10.8127C243.553 11.122 243.341 11.6266 243.341 12.3266L242.144 11.7162C242.144 11.0813 242.291 10.5278 242.584 10.0557C242.877 9.58359 243.276 9.22545 243.78 8.98127C244.285 8.7208 244.839 8.59057 245.441 8.59057C245.457 8.59057 245.473 8.59057 245.49 8.59057C245.522 8.59057 245.547 8.59057 245.563 8.59057ZM241.851 21.4836C243.007 21.4836 243.911 21.7522 244.562 22.2894C245.213 22.8103 245.539 23.5103 245.539 24.3894C245.539 25.1871 245.27 25.8789 244.733 26.465C244.212 27.051 243.504 27.4987 242.608 27.808C241.729 28.1336 240.736 28.2964 239.629 28.2964C237.708 28.2964 236.268 27.9708 235.307 27.3196C234.363 26.6685 233.891 25.8871 233.891 24.9755C233.891 24.3243 234.103 23.7382 234.526 23.2173C234.965 22.7127 235.698 22.4278 236.723 22.3627L236.553 22.7289C235.999 22.5824 235.527 22.3382 235.136 21.9964C234.762 21.6382 234.575 21.1255 234.575 20.458C234.575 19.7906 234.819 19.2208 235.307 18.7487C235.812 18.2603 236.553 17.9592 237.529 17.8452L238.823 18.5045H238.579C237.782 18.5859 237.212 18.7894 236.87 19.115C236.544 19.4243 236.382 19.7662 236.382 20.1406C236.382 20.5964 236.544 20.9382 236.87 21.1662C237.212 21.3778 237.684 21.4836 238.286 21.4836H241.851ZM239.605 26.6603C240.549 26.6603 241.322 26.5627 241.925 26.3673C242.543 26.172 242.999 25.9196 243.292 25.6103C243.585 25.301 243.732 24.9673 243.732 24.6092C243.732 24.1696 243.553 23.8196 243.194 23.5592C242.853 23.2987 242.226 23.1685 241.314 23.1685H237.554C237.033 23.1685 236.593 23.2987 236.235 23.5592C235.877 23.8359 235.698 24.2103 235.698 24.6824C235.698 25.2848 236.04 25.765 236.723 26.1231C237.423 26.4813 238.384 26.6603 239.605 26.6603ZM239.434 10.5929C240.411 10.5929 241.273 10.772 242.022 11.1301C242.787 11.472 243.382 11.9522 243.805 12.5708C244.228 13.1894 244.44 13.9057 244.44 14.7196C244.44 15.5173 244.228 16.2336 243.805 16.8685C243.382 17.4871 242.787 17.9755 242.022 18.3336C241.273 18.6755 240.411 18.8464 239.434 18.8464C237.822 18.8464 236.585 18.4638 235.722 17.6987C234.859 16.9173 234.428 15.9243 234.428 14.7196C234.428 13.9057 234.64 13.1894 235.063 12.5708C235.503 11.9522 236.097 11.472 236.846 11.1301C237.594 10.772 238.457 10.5929 239.434 10.5929ZM239.434 12.1801C238.587 12.1801 237.879 12.4162 237.309 12.8882C236.74 13.3441 236.455 13.9545 236.455 14.7196C236.455 15.4685 236.74 16.0789 237.309 16.551C237.879 17.0231 238.587 17.2592 239.434 17.2592C240.28 17.2592 240.989 17.0231 241.558 16.551C242.128 16.0789 242.413 15.4685 242.413 14.7196C242.413 13.9545 242.128 13.3441 241.558 12.8882C240.989 12.4162 240.28 12.1801 239.434 12.1801ZM248.279 23.0464V10.8371H249.988L250.159 13.572L249.842 13.3034C250.102 12.6522 250.452 12.1313 250.892 11.7406C251.331 11.3336 251.836 11.0406 252.406 10.8615C252.992 10.6824 253.594 10.5929 254.213 10.5929C255.092 10.5929 255.889 10.7638 256.606 11.1057C257.322 11.4313 257.892 11.9359 258.315 12.6196C258.755 13.3034 258.974 14.1743 258.974 15.2324V23.0464H257.021V15.9162C257.021 14.565 256.728 13.6289 256.142 13.108C255.572 12.5708 254.864 12.3022 254.017 12.3022C253.431 12.3022 252.845 12.4406 252.259 12.7173C251.673 12.9941 251.185 13.4417 250.794 14.0603C250.42 14.6789 250.232 15.5092 250.232 16.551V23.0464H248.279ZM276.14 23.2906C275.358 23.2906 274.618 23.1441 273.918 22.851C273.234 22.558 272.672 22.0859 272.233 21.4348C271.809 20.7673 271.598 19.9045 271.598 18.8464V10.8371H273.551V18.3336C273.551 19.5708 273.82 20.4255 274.357 20.8975C274.894 21.3534 275.651 21.5813 276.628 21.5813C277.084 21.5813 277.532 21.508 277.971 21.3615C278.411 21.1987 278.801 20.9545 279.143 20.6289C279.501 20.2871 279.778 19.8557 279.973 19.3348C280.185 18.8138 280.291 18.1952 280.291 17.4789V10.8371H282.244V23.0464H280.535L280.413 21.1906C279.99 21.9231 279.412 22.4603 278.679 22.8022C277.963 23.1278 277.116 23.2906 276.14 23.2906ZM286.791 28.1743V10.8371H288.5L288.671 13.8162L288.402 13.4743C288.614 12.9045 288.931 12.408 289.355 11.9848C289.778 11.5452 290.291 11.2034 290.893 10.9592C291.495 10.715 292.147 10.5929 292.847 10.5929C293.84 10.5929 294.751 10.8452 295.581 11.3499C296.428 11.8545 297.104 12.5789 297.608 13.5231C298.113 14.4673 298.365 15.6069 298.365 16.9417C298.365 18.2603 298.105 19.3999 297.584 20.3603C297.079 21.3045 296.404 22.0289 295.557 22.5336C294.711 23.0382 293.783 23.2906 292.773 23.2906C291.764 23.2906 290.877 23.0464 290.112 22.558C289.363 22.0534 288.826 21.4185 288.5 20.6534L288.744 20.2871V28.1743H286.791ZM292.578 21.5813C293.783 21.5813 294.719 21.158 295.386 20.3115C296.07 19.465 296.412 18.3417 296.412 16.9417C296.412 15.5417 296.078 14.4185 295.411 13.572C294.759 12.7255 293.84 12.3022 292.651 12.3022C291.87 12.3022 291.186 12.4975 290.6 12.8882C290.014 13.2627 289.558 13.7999 289.233 14.4999C288.907 15.1836 288.744 15.9975 288.744 16.9417C288.744 17.8696 288.899 18.6836 289.208 19.3836C289.534 20.0836 289.981 20.6289 290.551 21.0196C291.137 21.3941 291.813 21.5813 292.578 21.5813ZM325.184 10.8371H327.358L323.109 23.0464H321.155L317.712 13.3278L314.465 23.0464H312.511L308.262 10.8371H310.436L313.512 20.7755L316.833 10.8371H318.787L322.108 20.7755L325.184 10.8371ZM331.263 8.4929C330.824 8.4929 330.465 8.36266 330.189 8.1022C329.928 7.82546 329.798 7.46732 329.798 7.02778C329.798 6.58825 329.928 6.23825 330.189 5.97778C330.465 5.70104 330.824 5.56266 331.263 5.56266C331.703 5.56266 332.053 5.70104 332.313 5.97778C332.59 6.23825 332.728 6.58825 332.728 7.02778C332.728 7.46732 332.59 7.82546 332.313 8.1022C332.053 8.36266 331.703 8.4929 331.263 8.4929ZM332.24 10.8371V23.0464H330.286V10.8371H332.24ZM339.654 7.36964V19.6766C339.654 20.2789 339.825 20.7266 340.167 21.0196C340.509 21.3127 340.948 21.4592 341.485 21.4592C341.957 21.4592 342.364 21.3778 342.706 21.215C343.048 21.0522 343.357 20.8324 343.634 20.5557L344.318 22.1917C343.943 22.5336 343.496 22.8022 342.975 22.9975C342.47 23.1929 341.884 23.2906 341.217 23.2906C340.598 23.2906 340.02 23.1848 339.483 22.9731C338.946 22.7452 338.514 22.3952 338.189 21.9231C337.88 21.4348 337.717 20.7999 337.7 20.0185V7.90685L339.654 7.36964ZM344.098 10.8371V12.522H335.259V10.8371H344.098ZM347.003 23.0464V5.2208H348.956V12.6685C349.379 11.9359 349.941 11.4069 350.641 11.0813C351.341 10.7557 352.106 10.5929 352.936 10.5929C353.815 10.5929 354.613 10.7638 355.329 11.1057C356.046 11.4313 356.615 11.9359 357.039 12.6196C357.478 13.3034 357.698 14.1743 357.698 15.2324V23.0464H355.744V15.9162C355.744 14.565 355.451 13.6289 354.865 13.108C354.296 12.5708 353.588 12.3022 352.741 12.3022C352.155 12.3022 351.569 12.4406 350.983 12.7173C350.397 12.9941 349.908 13.4499 349.518 14.0848C349.143 14.7034 348.956 15.5336 348.956 16.5755V23.0464H347.003ZM375.547 23.2906C374.391 23.2906 373.357 23.0382 372.446 22.5336C371.551 22.0289 370.851 21.3045 370.346 20.3603C369.841 19.3999 369.589 18.2603 369.589 16.9417C369.589 15.6231 369.841 14.4917 370.346 13.5475C370.851 12.5871 371.542 11.8545 372.421 11.3499C373.301 10.8452 374.302 10.5929 375.425 10.5929C376.564 10.5929 377.533 10.8371 378.331 11.3255C379.145 11.8138 379.763 12.4813 380.187 13.3278C380.61 14.158 380.821 15.0941 380.821 16.1359C380.821 16.4127 380.813 16.665 380.797 16.8929C380.781 17.1208 380.756 17.3243 380.724 17.5034H370.859V15.7696H379.869L378.868 15.965C378.868 14.7929 378.542 13.8894 377.891 13.2545C377.256 12.6196 376.418 12.3022 375.376 12.3022C374.578 12.3022 373.887 12.4894 373.301 12.8638C372.731 13.222 372.283 13.751 371.957 14.451C371.648 15.1348 371.494 15.965 371.494 16.9417C371.494 17.9022 371.656 18.7324 371.982 19.4324C372.307 20.1324 372.763 20.6696 373.349 21.0441C373.952 21.4022 374.668 21.5813 375.498 21.5813C376.394 21.5813 377.118 21.4103 377.671 21.0685C378.241 20.7266 378.697 20.2627 379.039 19.6766L380.577 20.5801C380.268 21.1336 379.869 21.6138 379.381 22.0208C378.909 22.4278 378.347 22.7452 377.696 22.9731C377.061 23.1848 376.345 23.2906 375.547 23.2906ZM384.537 23.0464V10.8371H386.246L386.368 12.7417C386.808 11.9929 387.377 11.4475 388.077 11.1057C388.794 10.7638 389.526 10.5929 390.275 10.5929C391.138 10.5929 391.952 10.7882 392.717 11.1789C393.482 11.5696 394.068 12.172 394.475 12.9859C394.736 12.4324 395.102 11.9848 395.574 11.6429C396.046 11.2848 396.559 11.0243 397.112 10.8615C397.682 10.6824 398.219 10.5929 398.724 10.5929C399.505 10.5929 400.246 10.7557 400.946 11.0813C401.662 11.4069 402.248 11.9115 402.704 12.5952C403.16 13.2789 403.388 14.158 403.388 15.2324V23.0464H401.434V15.4278C401.434 14.3208 401.158 13.5231 400.604 13.0348C400.051 12.5464 399.367 12.3022 398.553 12.3022C397.918 12.3022 397.324 12.4569 396.77 12.7662C396.217 13.0755 395.769 13.5313 395.427 14.1336C395.102 14.7359 394.939 15.4766 394.939 16.3557V23.0464H392.986V15.4278C392.986 14.3208 392.709 13.5231 392.155 13.0348C391.602 12.5464 390.918 12.3022 390.104 12.3022C389.567 12.3022 389.013 12.4487 388.444 12.7417C387.89 13.0185 387.426 13.4662 387.052 14.0848C386.677 14.7034 386.49 15.5173 386.49 16.5266V23.0464H384.537ZM414.941 15.1592C414.941 14.2475 414.697 13.5475 414.208 13.0592C413.72 12.5545 413.028 12.3022 412.133 12.3022C411.286 12.3022 410.57 12.4894 409.984 12.8638C409.398 13.222 408.966 13.808 408.69 14.622L407.103 13.6452C407.428 12.7336 408.03 12.001 408.91 11.4475C409.789 10.8778 410.879 10.5929 412.182 10.5929C413.061 10.5929 413.858 10.7475 414.575 11.0569C415.291 11.3499 415.853 11.8057 416.26 12.4243C416.683 13.0266 416.894 13.808 416.894 14.7685V20.6778C416.894 21.2638 417.204 21.5569 417.822 21.5569C418.132 21.5569 418.433 21.5162 418.726 21.4348L418.628 22.9731C418.303 23.1359 417.879 23.2173 417.358 23.2173C416.886 23.2173 416.463 23.1278 416.089 22.9487C415.714 22.7696 415.421 22.501 415.21 22.1429C414.998 21.7685 414.892 21.3045 414.892 20.751V20.5069L415.38 20.5801C415.185 21.215 414.851 21.7359 414.379 22.1429C413.907 22.5336 413.378 22.8266 412.792 23.022C412.206 23.201 411.628 23.2906 411.058 23.2906C410.342 23.2906 409.675 23.1685 409.056 22.9243C408.437 22.6801 407.941 22.3138 407.566 21.8255C407.208 21.3208 407.029 20.7022 407.029 19.9696C407.029 19.058 407.33 18.3092 407.933 17.7231C408.551 17.1208 409.406 16.7138 410.497 16.5022L415.332 15.5499V17.1615L411.4 17.9673C410.603 18.1301 410.008 18.358 409.618 18.651C409.227 18.9441 409.032 19.351 409.032 19.872C409.032 20.3766 409.227 20.7917 409.618 21.1173C410.025 21.4266 410.594 21.5813 411.327 21.5813C411.799 21.5813 412.247 21.5243 412.67 21.4103C413.11 21.2801 413.5 21.0929 413.842 20.8487C414.184 20.5882 414.453 20.2708 414.648 19.8964C414.843 19.5057 414.941 19.0499 414.941 18.5289V15.1592ZM422.618 8.4929C422.179 8.4929 421.821 8.36266 421.544 8.1022C421.283 7.82546 421.153 7.46732 421.153 7.02778C421.153 6.58825 421.283 6.23825 421.544 5.97778C421.821 5.70104 422.179 5.56266 422.618 5.56266C423.058 5.56266 423.408 5.70104 423.668 5.97778C423.945 6.23825 424.083 6.58825 424.083 7.02778C424.083 7.46732 423.945 7.82546 423.668 8.1022C423.408 8.36266 423.058 8.4929 422.618 8.4929ZM423.595 10.8371V23.0464H421.642V10.8371H423.595ZM429.984 5.2208V19.9452C429.984 20.5638 430.097 20.9952 430.325 21.2394C430.553 21.4673 430.92 21.5813 431.424 21.5813C431.75 21.5813 432.018 21.5569 432.23 21.508C432.442 21.4592 432.727 21.3696 433.085 21.2394L432.767 22.9487C432.507 23.0627 432.222 23.1441 431.913 23.1929C431.603 23.258 431.286 23.2906 430.96 23.2906C429.967 23.2906 429.227 23.022 428.738 22.4848C428.266 21.9475 428.03 21.1255 428.03 20.0185V5.2208H429.984Z" fill="black"/>
</svg>
