<svg width="501" height="47" viewBox="0 0 501 47" fill="none" xmlns="http://www.w3.org/2000/svg">
<path d="M-93.8691 3.44215C-90.8738 3.44215 -88.2366 3.91425 -85.9575 4.85843C-83.6459 5.77006 -81.6435 7.12122 -79.9505 8.91192L-84.004 14.3329C-85.404 12.8677 -86.918 11.777 -88.5459 11.0608C-90.1412 10.3119 -91.9645 9.9375 -94.0156 9.9375C-95.2203 9.9375 -96.197 10.0677 -96.9459 10.3282C-97.6947 10.5887 -98.2319 10.9468 -98.5575 11.4026C-98.8831 11.8584 -99.0459 12.3794 -99.0459 12.9654C-99.0459 13.6491 -98.7366 14.2352 -98.118 14.7235C-97.4668 15.1794 -96.4249 15.5701 -94.9924 15.8956L-89.5714 17.1166C-86.3482 17.8654 -83.9877 18.9561 -82.4901 20.3887C-80.9924 21.8212 -80.2435 23.7259 -80.2435 26.1026C-80.2435 28.3817 -80.8296 30.3189 -82.0017 31.9142C-83.1738 33.477 -84.7854 34.6654 -86.8366 35.4794C-88.8877 36.2608 -91.2319 36.6515 -93.8691 36.6515C-96.018 36.6515 -98.0691 36.4236 -100.023 35.9677C-101.976 35.4794 -103.734 34.7956 -105.297 33.9166C-106.86 33.0375 -108.178 32.0282 -109.253 30.8887L-105.199 25.2724C-104.385 26.2166 -103.392 27.0631 -102.22 27.8119C-101.016 28.5282 -99.7133 29.098 -98.3133 29.5212C-96.8808 29.9445 -95.4319 30.1561 -93.9668 30.1561C-92.8273 30.1561 -91.8831 30.0422 -91.1342 29.8142C-90.3528 29.5863 -89.7831 29.2445 -89.4249 28.7887C-89.0668 28.3329 -88.8877 27.7956 -88.8877 27.177C-88.8877 26.4933 -89.1319 25.9235 -89.6203 25.4677C-90.1087 24.9794 -91.0366 24.5724 -92.404 24.2468L-98.3621 22.9282C-100.185 22.5049 -101.813 21.9515 -103.246 21.2677C-104.646 20.5515 -105.753 19.6073 -106.567 18.4352C-107.381 17.2305 -107.788 15.7329 -107.788 13.9422C-107.788 11.9235 -107.234 10.1329 -106.127 8.57006C-105.02 6.97471 -103.425 5.72122 -101.341 4.8096C-99.2575 3.89797 -96.7668 3.44215 -93.8691 3.44215ZM-70.0572 8.91192C-71.7502 8.91192 -72.9874 8.60262 -73.7688 7.98401C-74.5176 7.33285 -74.8921 6.32355 -74.8921 4.9561C-74.8921 3.55611 -74.5176 2.5468 -73.7688 1.9282C-72.9874 1.27704 -71.7502 0.951456 -70.0572 0.951456C-68.3967 0.951456 -67.1758 1.27704 -66.3944 1.9282C-65.613 2.5468 -65.2223 3.55611 -65.2223 4.9561C-65.2223 6.32355 -65.613 7.33285 -66.3944 7.98401C-67.1758 8.60262 -68.3967 8.91192 -70.0572 8.91192ZM-65.906 11.7445V36.1631H-74.2083V11.7445H-65.906ZM-34.8936 5.20029L-34.2099 10.7677C-34.4052 10.7026 -34.6006 10.6701 -34.7959 10.6701C-34.9913 10.6375 -35.1866 10.6212 -35.382 10.6212C-36.8145 10.6212 -37.889 10.9794 -38.6052 11.6956C-39.289 12.3794 -39.6308 13.2422 -39.6308 14.284L-42.5611 13.2096C-42.5611 11.8747 -42.3169 10.5887 -41.8285 9.35146C-41.3401 8.11425 -40.5913 7.10494 -39.582 6.32355C-38.5401 5.54215 -37.2378 5.15145 -35.675 5.15145C-35.5773 5.15145 -35.4634 5.15145 -35.3331 5.15145C-35.1704 5.15145 -35.0238 5.16773 -34.8936 5.20029ZM-43.2936 30.7422C-40.4611 30.7422 -38.2959 31.3445 -36.7983 32.5491C-35.268 33.7212 -34.5029 35.4142 -34.5029 37.6282C-34.5029 39.6468 -35.0564 41.3236 -36.1634 42.6584C-37.2704 43.9933 -38.8331 44.9863 -40.8518 45.6375C-42.8378 46.3212 -45.1983 46.6631 -47.9331 46.6631C-52.3611 46.6631 -55.5518 46.1096 -57.5052 45.0026C-59.4587 43.8956 -60.4355 42.398 -60.4355 40.5096C-60.4355 39.1422 -59.882 38.0352 -58.775 37.1887C-57.668 36.3422 -55.8285 35.8863 -53.2564 35.8212L-53.4518 36.6026C-55.4378 36.3422 -56.9192 35.7561 -57.8959 34.8445C-58.8727 33.9329 -59.3611 32.6956 -59.3611 31.1329C-59.3611 29.5701 -58.7424 28.3003 -57.5052 27.3236C-56.268 26.3468 -54.6238 25.8096 -52.5727 25.7119L-49.5448 27.1282H-50.3262C-51.5959 27.1933 -52.4913 27.4049 -53.0122 27.7631C-53.5331 28.1212 -53.7936 28.5608 -53.7936 29.0817C-53.7936 29.6352 -53.5657 30.0584 -53.1099 30.3515C-52.6541 30.6119 -51.9704 30.7422 -51.0587 30.7422H-43.2936ZM-47.8843 41.291C-46.3215 41.291 -45.0355 41.177 -44.0262 40.9491C-42.9843 40.7538 -42.2029 40.4608 -41.682 40.0701C-41.1611 39.7119 -40.9006 39.2887 -40.9006 38.8003C-40.9006 38.3119 -41.0797 37.9212 -41.4378 37.6282C-41.7959 37.3677 -42.4471 37.2375 -43.3913 37.2375H-52.1331C-52.7518 37.2375 -53.2564 37.4003 -53.6471 37.7259C-54.0052 38.0515 -54.1843 38.4584 -54.1843 38.9468C-54.1843 39.6956 -53.6308 40.2654 -52.5238 40.6561C-51.4169 41.0794 -49.8704 41.291 -47.8843 41.291ZM-47.5913 11.2561C-45.1169 11.2561 -43.0006 11.5817 -41.2424 12.2329C-39.4843 12.884 -38.1494 13.8282 -37.2378 15.0654C-36.2936 16.2701 -35.8215 17.7677 -35.8215 19.5584C-35.8215 21.3166 -36.2936 22.8142 -37.2378 24.0515C-38.1494 25.2887 -39.4843 26.2329 -41.2424 26.884C-43.0006 27.5026 -45.1169 27.8119 -47.5913 27.8119C-51.4657 27.8119 -54.4122 27.0956 -56.4308 25.6631C-58.4169 24.2305 -59.4099 22.1956 -59.4099 19.5584C-59.4099 17.7677 -58.9541 16.2701 -58.0424 15.0654C-57.0983 13.8282 -55.7471 12.884 -53.989 12.2329C-52.2308 11.5817 -50.0983 11.2561 -47.5913 11.2561ZM-47.5913 15.9933C-48.6657 15.9933 -49.5448 16.3026 -50.2285 16.9212C-50.8797 17.5398 -51.2052 18.4189 -51.2052 19.5584C-51.2052 20.6654 -50.8797 21.5282 -50.2285 22.1468C-49.5448 22.7654 -48.6657 23.0747 -47.5913 23.0747C-46.5494 23.0747 -45.6866 22.7654 -45.0029 22.1468C-44.3192 21.5282 -43.9773 20.6654 -43.9773 19.5584C-43.9773 18.4189 -44.3192 17.5398 -45.0029 16.9212C-45.6866 16.3026 -46.5494 15.9933 -47.5913 15.9933ZM-29.7378 36.1631V11.7445H-22.3146L-21.8751 20.1445L-22.803 19.2166C-22.4774 17.4584 -21.9076 15.9933 -21.0937 14.8212C-20.2472 13.6491 -19.2053 12.7701 -17.9681 12.184C-16.6983 11.5654 -15.282 11.2561 -13.7192 11.2561C-12.0262 11.2561 -10.5611 11.5817 -9.32389 12.2329C-8.05413 12.884 -7.0611 13.8445 -6.34482 15.1142C-5.62854 16.384 -5.2704 17.9794 -5.2704 19.9003V36.1631H-13.5727V22.098C-13.5727 20.4049 -13.8983 19.2329 -14.5495 18.5817C-15.2006 17.9305 -16.0309 17.6049 -17.0402 17.6049C-17.8216 17.6049 -18.5541 17.8003 -19.2378 18.191C-19.9216 18.5491 -20.4588 19.1352 -20.8495 19.9491C-21.2402 20.7631 -21.4355 21.8538 -21.4355 23.2212V36.1631H-29.7378ZM25.7046 36.6515C24.0441 36.6515 22.579 36.3747 21.3092 35.8212C20.072 35.2352 19.0953 34.3073 18.379 33.0375C17.6627 31.7677 17.3046 30.1073 17.3046 28.0561V11.7445H25.6069V26.1026C25.6069 27.6654 25.9162 28.7561 26.5348 29.3747C27.1534 29.9933 28.0325 30.3026 29.172 30.3026C29.7581 30.3026 30.3116 30.2049 30.8325 30.0096C31.3534 29.7817 31.8092 29.4561 32.1999 29.0329C32.5906 28.577 32.8837 28.0073 33.079 27.3236C33.3069 26.6073 33.4209 25.777 33.4209 24.8329V11.7445H41.7232V36.1631H34.2999L34.0558 31.5724C33.2744 33.298 32.1837 34.584 30.7837 35.4305C29.3837 36.2445 27.6906 36.6515 25.7046 36.6515ZM49.1533 46.4189V11.7445H56.6254L57.065 20.584L56.0882 19.5584C56.3161 17.9305 56.8208 16.498 57.6022 15.2608C58.3836 14.0235 59.3929 13.0468 60.6301 12.3305C61.8673 11.6142 63.2836 11.2561 64.8789 11.2561C66.8975 11.2561 68.6557 11.7608 70.1533 12.7701C71.651 13.7468 72.8068 15.1794 73.6208 17.0677C74.4673 18.9235 74.8905 21.1863 74.8905 23.8561C74.8905 26.5259 74.4673 28.8212 73.6208 30.7422C72.7743 32.6631 71.5859 34.1282 70.0557 35.1375C68.558 36.1468 66.7998 36.6515 64.7812 36.6515C62.5673 36.6515 60.7766 36.0003 59.4091 34.698C58.0417 33.3631 57.1301 31.6863 56.6743 29.6677L57.4557 28.4956V46.4189H49.1533ZM61.9487 30.5468C63.3812 30.5468 64.5045 30.0259 65.3184 28.984C66.1324 27.9096 66.5394 26.2329 66.5394 23.9538C66.5394 21.6747 66.1324 20.0142 65.3184 18.9724C64.537 17.898 63.4301 17.3608 61.9975 17.3608C61.0859 17.3608 60.2882 17.6212 59.6045 18.1422C58.9208 18.6305 58.3836 19.3631 57.9929 20.3398C57.6347 21.3166 57.4557 22.5212 57.4557 23.9538C57.4557 25.3212 57.6184 26.5096 57.944 27.5189C58.3022 28.4956 58.8231 29.2445 59.5068 29.7654C60.1905 30.2863 61.0045 30.5468 61.9487 30.5468ZM106.502 3.97936V27.4701C106.502 28.6422 106.778 29.4887 107.332 30.0096C107.918 30.498 108.716 30.7422 109.725 30.7422C110.506 30.7422 111.174 30.6608 111.727 30.498C112.313 30.3026 112.834 30.0259 113.29 29.6677L114.169 34.7956C113.355 35.3817 112.329 35.8375 111.092 36.1631C109.855 36.4887 108.585 36.6515 107.283 36.6515C105.427 36.6515 103.816 36.391 102.448 35.8701C101.113 35.3491 100.071 34.5189 99.3225 33.3794C98.6062 32.2398 98.2318 30.7259 98.1992 28.8375V6.27471L106.502 3.97936ZM113.778 11.7445V17.6538H93.9992V11.7445H113.778ZM130.702 11.2561C133.274 11.2561 135.52 11.7608 137.441 12.7701C139.395 13.7468 140.909 15.1956 141.983 17.1166C143.09 19.0049 143.643 21.284 143.643 23.9538C143.643 26.6236 143.09 28.9189 141.983 30.8398C140.909 32.7282 139.395 34.177 137.441 35.1863C135.52 36.1631 133.274 36.6515 130.702 36.6515C128.195 36.6515 125.964 36.1631 124.011 35.1863C122.057 34.177 120.527 32.7282 119.42 30.8398C118.346 28.9189 117.809 26.6236 117.809 23.9538C117.809 21.284 118.346 19.0049 119.42 17.1166C120.527 15.1956 122.057 13.7468 124.011 12.7701C125.964 11.7608 128.195 11.2561 130.702 11.2561ZM130.702 17.1654C129.757 17.1654 128.943 17.3933 128.26 17.8491C127.576 18.3049 127.055 19.0375 126.697 20.0468C126.339 21.0561 126.16 22.3584 126.16 23.9538C126.16 25.5491 126.339 26.8515 126.697 27.8608C127.055 28.8375 127.576 29.5701 128.26 30.0584C128.943 30.5142 129.757 30.7422 130.702 30.7422C131.678 30.7422 132.509 30.5142 133.192 30.0584C133.876 29.5701 134.397 28.8375 134.755 27.8608C135.113 26.8515 135.292 25.5491 135.292 23.9538C135.292 22.3584 135.113 21.0561 134.755 20.0468C134.397 19.0375 133.876 18.3049 133.192 17.8491C132.509 17.3933 131.678 17.1654 130.702 17.1654ZM165.804 36.1631V3.93052H181.481C185.453 3.96308 188.383 4.7282 190.272 6.22587C192.16 7.69099 193.104 9.82355 193.104 12.6235C193.104 14.4468 192.567 16.0259 191.492 17.3608C190.418 18.6631 188.774 19.4933 186.56 19.8515V19.9003C189.034 20.2259 190.874 21.0887 192.078 22.4887C193.316 23.8561 193.934 25.5166 193.934 27.4701C193.934 30.2375 192.958 32.3863 191.004 33.9166C189.051 35.4142 186.12 36.1631 182.213 36.1631H165.804ZM173.911 30.2538H180.797C182.327 30.2538 183.467 29.9445 184.216 29.3259C184.965 28.7073 185.339 27.8119 185.339 26.6398C185.339 25.5003 184.965 24.6375 184.216 24.0515C183.467 23.4329 182.327 23.1235 180.797 23.1235H173.911V30.2538ZM173.911 17.1166H180.016C183.011 17.1166 184.509 15.9445 184.509 13.6003C184.509 11.2561 183.011 10.084 180.016 10.084H173.911V17.1166ZM208.321 36.6515C206.661 36.6515 205.196 36.3747 203.926 35.8212C202.689 35.2352 201.712 34.3073 200.996 33.0375C200.28 31.7677 199.921 30.1073 199.921 28.0561V11.7445H208.224V26.1026C208.224 27.6654 208.533 28.7561 209.152 29.3747C209.77 29.9933 210.649 30.3026 211.789 30.3026C212.375 30.3026 212.928 30.2049 213.449 30.0096C213.97 29.7817 214.426 29.4561 214.817 29.0329C215.207 28.577 215.5 28.0073 215.696 27.3236C215.924 26.6073 216.038 25.777 216.038 24.8329V11.7445H224.34V36.1631H216.917L216.673 31.5724C215.891 33.298 214.8 34.584 213.4 35.4305C212 36.2445 210.307 36.6515 208.321 36.6515ZM240.756 36.6515C238.738 36.6515 236.963 36.1631 235.433 35.1863C233.935 34.177 232.763 32.7282 231.917 30.8398C231.103 28.9515 230.696 26.6887 230.696 24.0515C230.696 21.3166 231.119 19.0049 231.965 17.1166C232.845 15.2282 234.049 13.7794 235.579 12.7701C237.142 11.7608 238.933 11.2561 240.952 11.2561C243.165 11.2561 244.94 11.9398 246.275 13.3073C247.642 14.6422 248.521 16.3515 248.912 18.4352L248.131 19.4608V1.39099H256.433V36.1631H249.01L248.472 27.8608L249.449 28.5933C249.254 30.2212 248.749 31.6375 247.935 32.8422C247.154 34.0468 246.145 34.991 244.907 35.6747C243.703 36.3259 242.319 36.6515 240.756 36.6515ZM243.638 30.5468C244.582 30.5468 245.379 30.3026 246.031 29.8142C246.714 29.2933 247.235 28.5282 247.593 27.5189C247.952 26.5096 248.131 25.2724 248.131 23.8073C248.131 22.4398 247.952 21.284 247.593 20.3398C247.268 19.3631 246.763 18.6305 246.079 18.1422C245.428 17.6212 244.631 17.3608 243.686 17.3608C242.254 17.3608 241.114 17.898 240.268 18.9724C239.454 20.0142 239.047 21.6747 239.047 23.9538C239.047 26.2329 239.454 27.9096 240.268 28.984C241.082 30.0259 242.205 30.5468 243.638 30.5468ZM287.491 5.20029L288.175 10.7677C287.98 10.7026 287.784 10.6701 287.589 10.6701C287.393 10.6375 287.198 10.6212 287.003 10.6212C285.57 10.6212 284.496 10.9794 283.78 11.6956C283.096 12.3794 282.754 13.2422 282.754 14.284L279.824 13.2096C279.824 11.8747 280.068 10.5887 280.556 9.35146C281.045 8.11425 281.793 7.10494 282.803 6.32355C283.845 5.54215 285.147 5.15145 286.71 5.15145C286.807 5.15145 286.921 5.15145 287.052 5.15145C287.214 5.15145 287.361 5.16773 287.491 5.20029ZM279.091 30.7422C281.924 30.7422 284.089 31.3445 285.586 32.5491C287.117 33.7212 287.882 35.4142 287.882 37.6282C287.882 39.6468 287.328 41.3236 286.221 42.6584C285.114 43.9933 283.552 44.9863 281.533 45.6375C279.547 46.3212 277.186 46.6631 274.452 46.6631C270.024 46.6631 266.833 46.1096 264.879 45.0026C262.926 43.8956 261.949 42.398 261.949 40.5096C261.949 39.1422 262.503 38.0352 263.61 37.1887C264.717 36.3422 266.556 35.8863 269.128 35.8212L268.933 36.6026C266.947 36.3422 265.466 35.7561 264.489 34.8445C263.512 33.9329 263.024 32.6956 263.024 31.1329C263.024 29.5701 263.642 28.3003 264.879 27.3236C266.117 26.3468 267.761 25.8096 269.812 25.7119L272.84 27.1282H272.059C270.789 27.1933 269.893 27.4049 269.373 27.7631C268.852 28.1212 268.591 28.5608 268.591 29.0817C268.591 29.6352 268.819 30.0584 269.275 30.3515C269.731 30.6119 270.414 30.7422 271.326 30.7422H279.091ZM274.5 41.291C276.063 41.291 277.349 41.177 278.359 40.9491C279.4 40.7538 280.182 40.4608 280.703 40.0701C281.224 39.7119 281.484 39.2887 281.484 38.8003C281.484 38.3119 281.305 37.9212 280.947 37.6282C280.589 37.3677 279.938 37.2375 278.993 37.2375H270.252C269.633 37.2375 269.128 37.4003 268.738 37.7259C268.379 38.0515 268.2 38.4584 268.2 38.9468C268.2 39.6956 268.754 40.2654 269.861 40.6561C270.968 41.0794 272.514 41.291 274.5 41.291ZM274.793 11.2561C277.268 11.2561 279.384 11.5817 281.142 12.2329C282.9 12.884 284.235 13.8282 285.147 15.0654C286.091 16.2701 286.563 17.7677 286.563 19.5584C286.563 21.3166 286.091 22.8142 285.147 24.0515C284.235 25.2887 282.9 26.2329 281.142 26.884C279.384 27.5026 277.268 27.8119 274.793 27.8119C270.919 27.8119 267.973 27.0956 265.954 25.6631C263.968 24.2305 262.975 22.1956 262.975 19.5584C262.975 17.7677 263.431 16.2701 264.342 15.0654C265.286 13.8282 266.638 12.884 268.396 12.2329C270.154 11.5817 272.286 11.2561 274.793 11.2561ZM274.793 15.9933C273.719 15.9933 272.84 16.3026 272.156 16.9212C271.505 17.5398 271.179 18.4189 271.179 19.5584C271.179 20.6654 271.505 21.5282 272.156 22.1468C272.84 22.7654 273.719 23.0747 274.793 23.0747C275.835 23.0747 276.698 22.7654 277.382 22.1468C278.066 21.5282 278.407 20.6654 278.407 19.5584C278.407 18.4189 278.066 17.5398 277.382 16.9212C276.698 16.3026 275.835 15.9933 274.793 15.9933ZM304.563 36.6515C301.861 36.6515 299.517 36.1468 297.531 35.1375C295.577 34.1282 294.063 32.6794 292.989 30.791C291.914 28.9026 291.377 26.6236 291.377 23.9538C291.377 21.284 291.914 19.0049 292.989 17.1166C294.063 15.2282 295.561 13.7794 297.482 12.7701C299.435 11.7608 301.665 11.2561 304.172 11.2561C306.745 11.2561 308.926 11.7608 310.717 12.7701C312.54 13.7468 313.924 15.1142 314.868 16.8724C315.812 18.598 316.284 20.584 316.284 22.8305C316.284 23.4166 316.268 24.0026 316.235 24.5887C316.203 25.1747 316.154 25.6631 316.089 26.0538H296.749V21.6096H312.426L308.47 23.1235C308.47 21.1701 308.112 19.6724 307.396 18.6305C306.712 17.5887 305.638 17.0677 304.172 17.0677C303.131 17.0677 302.235 17.3119 301.486 17.8003C300.77 18.2887 300.217 19.0538 299.826 20.0956C299.468 21.1375 299.289 22.4724 299.289 24.1003C299.289 25.6956 299.5 26.998 299.924 28.0073C300.347 28.984 300.949 29.7003 301.731 30.1561C302.512 30.5794 303.456 30.791 304.563 30.791C305.8 30.791 306.777 30.5468 307.493 30.0584C308.242 29.5701 308.796 28.8863 309.154 28.0073L315.796 30.2049C315.34 31.6049 314.542 32.7933 313.403 33.7701C312.296 34.7142 310.961 35.4305 309.398 35.9189C307.868 36.4073 306.256 36.6515 304.563 36.6515ZM332.315 3.97936V27.4701C332.315 28.6422 332.591 29.4887 333.145 30.0096C333.731 30.498 334.528 30.7422 335.538 30.7422C336.319 30.7422 336.987 30.6608 337.54 30.498C338.126 30.3026 338.647 30.0259 339.103 29.6677L339.982 34.7956C339.168 35.3817 338.142 35.8375 336.905 36.1631C335.668 36.4887 334.398 36.6515 333.096 36.6515C331.24 36.6515 329.628 36.391 328.261 35.8701C326.926 35.3491 325.884 34.5189 325.135 33.3794C324.419 32.2398 324.045 30.7259 324.012 28.8375V6.27471L332.315 3.97936ZM339.591 11.7445V17.6538H319.812V11.7445H339.591ZM345.477 36.1631V3.93052H361.154C365.126 3.96308 368.056 4.7282 369.945 6.22587C371.833 7.69099 372.777 9.82355 372.777 12.6235C372.777 14.4468 372.24 16.0259 371.166 17.3608C370.091 18.6631 368.447 19.4933 366.233 19.8515V19.9003C368.708 20.2259 370.547 21.0887 371.752 22.4887C372.989 23.8561 373.608 25.5166 373.608 27.4701C373.608 30.2375 372.631 32.3863 370.677 33.9166C368.724 35.4142 365.794 36.1631 361.887 36.1631H345.477ZM353.584 30.2538H360.47C362.001 30.2538 363.14 29.9445 363.889 29.3259C364.638 28.7073 365.012 27.8119 365.012 26.6398C365.012 25.5003 364.638 24.6375 363.889 24.0515C363.14 23.4329 362.001 23.1235 360.47 23.1235H353.584V30.2538ZM353.584 17.1166H359.689C362.684 17.1166 364.182 15.9445 364.182 13.6003C364.182 11.2561 362.684 10.084 359.689 10.084H353.584V17.1166ZM387.995 36.6515C386.334 36.6515 384.869 36.3747 383.599 35.8212C382.362 35.2352 381.385 34.3073 380.669 33.0375C379.953 31.7677 379.595 30.1073 379.595 28.0561V11.7445H387.897V26.1026C387.897 27.6654 388.206 28.7561 388.825 29.3747C389.444 29.9933 390.323 30.3026 391.462 30.3026C392.048 30.3026 392.602 30.2049 393.123 30.0096C393.644 29.7817 394.099 29.4561 394.49 29.0329C394.881 28.577 395.174 28.0073 395.369 27.3236C395.597 26.6073 395.711 25.777 395.711 24.8329V11.7445H404.013V36.1631H396.59L396.346 31.5724C395.564 33.298 394.474 34.584 393.074 35.4305C391.674 36.2445 389.981 36.6515 387.995 36.6515ZM420.429 36.6515C418.411 36.6515 416.636 36.1631 415.106 35.1863C413.609 34.177 412.436 32.7282 411.59 30.8398C410.776 28.9515 410.369 26.6887 410.369 24.0515C410.369 21.3166 410.792 19.0049 411.639 17.1166C412.518 15.2282 413.722 13.7794 415.253 12.7701C416.816 11.7608 418.606 11.2561 420.625 11.2561C422.839 11.2561 424.613 11.9398 425.948 13.3073C427.316 14.6422 428.195 16.3515 428.585 18.4352L427.804 19.4608V1.39099H436.106V36.1631H428.683L428.146 27.8608L429.122 28.5933C428.927 30.2212 428.422 31.6375 427.609 32.8422C426.827 34.0468 425.818 34.991 424.581 35.6747C423.376 36.3259 421.992 36.6515 420.429 36.6515ZM423.311 30.5468C424.255 30.5468 425.053 30.3026 425.704 29.8142C426.388 29.2933 426.909 28.5282 427.267 27.5189C427.625 26.5096 427.804 25.2724 427.804 23.8073C427.804 22.4398 427.625 21.284 427.267 20.3398C426.941 19.3631 426.436 18.6305 425.753 18.1422C425.102 17.6212 424.304 17.3608 423.36 17.3608C421.927 17.3608 420.788 17.898 419.941 18.9724C419.127 20.0142 418.72 21.6747 418.72 23.9538C418.72 26.2329 419.127 27.9096 419.941 28.984C420.755 30.0259 421.878 30.5468 423.311 30.5468ZM452.513 36.6515C450.495 36.6515 448.72 36.1631 447.19 35.1863C445.692 34.177 444.52 32.7282 443.674 30.8398C442.86 28.9515 442.453 26.6887 442.453 24.0515C442.453 21.3166 442.876 19.0049 443.723 17.1166C444.602 15.2282 445.806 13.7794 447.336 12.7701C448.899 11.7608 450.69 11.2561 452.709 11.2561C454.923 11.2561 456.697 11.9398 458.032 13.3073C459.399 14.6422 460.278 16.3515 460.669 18.4352L459.888 19.4608V1.39099H468.19V36.1631H460.767L460.229 27.8608L461.206 28.5933C461.011 30.2212 460.506 31.6375 459.692 32.8422C458.911 34.0468 457.902 34.991 456.664 35.6747C455.46 36.3259 454.076 36.6515 452.513 36.6515ZM455.395 30.5468C456.339 30.5468 457.136 30.3026 457.788 29.8142C458.471 29.2933 458.992 28.5282 459.35 27.5189C459.709 26.5096 459.888 25.2724 459.888 23.8073C459.888 22.4398 459.709 21.284 459.35 20.3398C459.025 19.3631 458.52 18.6305 457.836 18.1422C457.185 17.6212 456.388 17.3608 455.443 17.3608C454.011 17.3608 452.871 17.898 452.025 18.9724C451.211 20.0142 450.804 21.6747 450.804 23.9538C450.804 26.2329 451.211 27.9096 452.025 28.984C452.839 30.0259 453.962 30.5468 455.395 30.5468ZM500.176 11.7445L491.288 36.1631C490.376 38.7352 489.383 40.7863 488.309 42.3166C487.234 43.8468 485.964 44.9538 484.499 45.6375C483.034 46.3212 481.276 46.6631 479.225 46.6631C477.857 46.6631 476.604 46.5166 475.464 46.2236C474.325 45.9305 473.332 45.5236 472.485 45.0026L474.146 39.3863C474.732 39.8096 475.35 40.1026 476.002 40.2654C476.653 40.4608 477.483 40.5584 478.492 40.5584C479.436 40.5584 480.202 40.3956 480.788 40.0701C481.406 39.7445 481.895 39.1259 482.253 38.2142L482.888 36.7003L480.055 30.0584L472.73 11.7445H481.862L485.623 25.6631L486.795 30.8398L488.162 25.4677L491.923 11.7445H500.176Z" fill="black"/>
</svg>
